# xmcd
#
# Track frame offsets:
#	150
#	15857
#	37026
#	51029
#	69592
#	84376
#	102993
#	122657
#	139712
#	157212
#
# Disc length: 2353 seconds
#
# Revision: 0
# Processed by: cddbd v1.5.2PL0 Copyright (c) Steve Scherf et al.
# Submitted via: EasyCDDAExtractor 9.1.3.1
#
DISCID=7e092f0a
DTITLE=Jeff Miller - Time Ticks By
DYEAR=2008
DGENRE=Country
TTITLE0=Karma
TTITLE1=Everything
TTITLE2=Meant To Be
TTITLE3=Quarter Till 2
TTITLE4=Walk In The Park
TTITLE5=Letting Go
TTITLE6=Abandon Lonely
TTITLE7=Long Lost Love
TTITLE8=She Said Yes
TTITLE9=Victoria
EXTD=
EXTT0=
EXTT1=
EXTT2=
EXTT3=
EXTT4=
EXTT5=
EXTT6=
EXTT7=
EXTT8=
EXTT9=
PLAYORDER=
